<svg xmlns="http://www.w3.org/2000/svg" viewBox="0 0 180 180">
  <rect width="180" height="180" rx="34" fill="#18181B"/>
  <g transform="translate(22.5, 33.75) scale(5.625)">
    <path d="M3 14h18v3a1 1 0 01-1 1H4a1 1 0 01-1-1v-3z" fill="#F59E0B"/>
    <path d="M5 8l2-4h10l2 4v6H5V8z" fill="#F59E0B"/>
    <path d="M7 5l1.5-3h7L17 5v2H7V5z" fill="#18181B" opacity="0.7"/>
    <rect x="9" y="0" width="6" height="3" rx="1" fill="#FBBF24"/>
    <circle cx="7" cy="18" r="2" fill="#111"/>
    <circle cx="7" cy="18" r="1" fill="#333"/>
    <circle cx="17" cy="18" r="2" fill="#111"/>
    <circle cx="17" cy="18" r="1" fill="#333"/>
    <rect x="19" y="10" width="2" height="2" rx="0.5" fill="#FBBF24"/>
    <rect x="3" y="10" width="2" height="2" rx="0.5" fill="#FBBF24"/>
  </g>
</svg>